<?xml version="1.0" ?><svg style="enable-background:new 0 0 44 44;" version="1.1" viewBox="0 0 44 44" xml:space="preserve" xmlns="http://www.w3.org/2000/svg" xmlns:xlink="http://www.w3.org/1999/xlink"><g id="ghost"/><g id="bat"/><g id="monster"/><g id="jason"/><g id="grave"/><g id="skull"/><g id="cauldron"/><g id="cleaver"/><g id="candle"/><g id="cat"/><g id="owl"/><g id="pumkin"/><g id="eye"/><g id="vampire"/><g id="finger"/><g id="leaf"/><g id="coffin"><g><g><path d="M21,26c-0.553,0-1-0.447-1-1v-3c0-0.553,0.447-1,1-1s1,0.447,1,1v3C22,25.553,21.553,26,21,26z"/></g><g><path d="M21,30c-0.553,0-1-0.447-1-1v-1c0-0.553,0.447-1,1-1s1,0.447,1,1v1C22,29.553,21.553,30,21,30z"/></g><path d="M30,11h-2V9c0-0.553-0.447-1-1-1s-1,0.447-1,1v2h-2c-0.553,0-1,0.447-1,1s0.447,1,1,1h2v8c0,0.553,0.447,1,1,1    s1-0.447,1-1v-8h2c0.553,0,1-0.447,1-1S30.553,11,30,11z"/><path d="M39.383,10.986l-2.979-8.936C35.995,0.824,34.852,0,33.559,0H13.441c-1.294,0-2.438,0.824-2.845,2.051l-2.979,8.936    C7.208,12.215,7,13.495,7,14.79c0,0.872,0.097,1.75,0.286,2.608l2.677,12.045C8.221,30.226,7,31.97,7,34    c0,0.136,0.007,0.272,0.021,0.411C5.225,35.189,4,36.987,4,39c0,2.757,2.243,5,5,5h22.396c1.416,0,2.621-0.966,2.93-2.35    l5.389-24.251C39.903,16.545,40,15.667,40,14.79C40,13.493,39.792,12.213,39.383,10.986z M6,39c0-1.408,0.999-2.642,2.376-2.933    c0.271-0.058,0.506-0.225,0.649-0.462c0.143-0.236,0.182-0.522,0.105-0.789C9.042,34.5,9,34.241,9,34    c0-1.07,0.567-2.004,1.412-2.535l2.264,10.185c0.027,0.121,0.069,0.235,0.109,0.35H9C7.346,42,6,40.654,6,39z M15.604,42    c-0.473,0-0.874-0.322-0.976-0.783l-5.39-24.251C9.08,16.249,9,15.517,9,14.79c0-1.08,0.173-2.146,0.515-3.171l2.979-8.937    C12.63,2.274,13.011,2,13.441,2h4.177c-0.006,0.018-0.016,0.033-0.021,0.051l-2.979,8.936c-0.022,0.066-0.036,0.134-0.056,0.2    C13.647,11.558,13,12.453,13,13.5c0,0.315,0.065,0.613,0.171,0.89C12.47,14.834,12,15.61,12,16.5s0.47,1.666,1.171,2.11    C13.065,18.887,13,19.185,13,19.5c0,1.312,1.018,2.379,2.304,2.48l4.371,19.67c0.027,0.121,0.069,0.235,0.109,0.35H15.604z     M14.5,17c-0.275,0-0.5-0.225-0.5-0.5s0.225-0.5,0.5-0.5h4c0.275,0,0.5,0.225,0.5,0.5S18.775,17,18.5,17H14.5z M18,19.5    c0,0.275-0.225,0.5-0.5,0.5h-2c-0.275,0-0.5-0.225-0.5-0.5s0.225-0.5,0.5-0.5h2C17.775,19,18,19.225,18,19.5z M17.5,14h-2    c-0.275,0-0.5-0.225-0.5-0.5s0.225-0.5,0.5-0.5h2c0.275,0,0.5,0.225,0.5,0.5S17.775,14,17.5,14z M37.761,16.965l-5.388,24.251    C32.27,41.678,31.868,42,31.396,42h-8.791c-0.473,0-0.874-0.322-0.976-0.783L17.358,22H17.5c1.379,0,2.5-1.121,2.5-2.5    c0-0.315-0.065-0.613-0.171-0.89C20.53,18.166,21,17.39,21,16.5s-0.47-1.666-1.171-2.11C19.935,14.113,20,13.815,20,13.5    c0-1.379-1.121-2.5-2.5-2.5h-0.779l2.773-8.317C19.63,2.274,20.011,2,20.441,2h13.117c0.431,0,0.812,0.274,0.949,0.684    l2.979,8.936C37.827,12.642,38,13.708,38,14.79C38,15.521,37.92,16.253,37.761,16.965z"/></g></g><g id="broom"/><g id="moon"/><g id="poison"/><g id="sweet"/><g id="zombie"/><g id="hat"/><g id="candy"/></svg>